# xmcd
#
# Track frame offsets:
#	150
#	12960
#	27324
#	42021
#	58673
#	73820
#	91445
#	103278
#	122817
#	136982
#	152423
#	165705
#
# Disc length: 2399 seconds
# Revision: 0
# Processed by: cddbd v1.5.2PL0 Copyright (c) Steve Scherf et al.
# Submitted via: dBpowerAMP V12.0
#
DISCID=9f095d0c
DTITLE=David Frizzell - Counting On Love To Save Me
DYEAR=2010
DGENRE=Country
TTITLE0=Counting On Love To Save Me
TTITLE1=My Angelina
TTITLE2=Take My X-wife, Please
TTITLE3=Good-bye
TTITLE4=Big Belly Boogie
TTITLE5=Dream Of Angels
TTITLE6=Real Good Night
TTITLE7=Illusion (featuring Amy Clawson)
TTITLE8=You're My Woman
TTITLE9=Mama's Arms
TTITLE10=No Reason For Sunday This Week
TTITLE11=Taxes
EXTD=
EXTT0=
EXTT1=
EXTT2=
EXTT3=
EXTT4=
EXTT5=
EXTT6=
EXTT7=
EXTT8=
EXTT9=
EXTT10=
EXTT11=
PLAYORDER=
